<svg width="60" height="57" viewBox="0 0 60 57" fill="none" xmlns="http://www.w3.org/2000/svg">
<path d="M59.9219 18.1169C58.6896 11.5776 54.9937 5.60915 49.515 1.31121C48.7585 0.717836 47.63 0.809125 46.9942 1.51517C46.3585 2.22121 46.4563 3.27449 47.2127 3.86798C52.049 7.66182 55.311 12.9276 56.3978 18.6954C56.569 19.6038 57.4967 20.2105 58.4699 20.0509C59.4429 19.8911 60.0931 19.0253 59.9219 18.1169Z" fill="#227AE2"/>
<path d="M12.7365 3.86808C13.4929 3.2747 13.5907 2.22132 12.955 1.51527C12.3193 0.809232 11.1907 0.717943 10.4343 1.31132C4.95552 5.60926 1.25957 11.5777 0.0273436 18.117C-0.143815 19.0253 0.506349 19.8911 1.47951 20.0509C2.45267 20.2106 3.38038 19.6038 3.55154 18.6954C4.63837 12.9277 7.90028 7.66192 12.7365 3.86808Z" fill="#227AE2"/>
<path d="M42.6127 8.98497C46.1498 11.7597 48.5378 15.6211 49.3365 19.8578V19.8579C49.5078 20.7662 50.4355 21.3729 51.4085 21.213H51.4086C52.3818 21.0532 53.0319 20.1872 52.8606 19.2789C51.9163 14.2707 49.0945 9.70693 44.9149 6.4282H44.9148C44.1583 5.83482 43.0299 5.92611 42.3941 6.63216C41.7584 7.3382 41.8562 8.39159 42.6127 8.98497Z" fill="#227AE2"/>
<path d="M8.54075 21.213C9.5139 21.3729 10.4416 20.7661 10.6129 19.8578C11.4117 15.6212 13.7995 11.7598 17.3367 8.98496C18.0932 8.39158 18.191 7.3382 17.5553 6.63226C16.9195 5.92622 15.7909 5.83493 15.0346 6.42831C10.855 9.70715 8.03323 14.2709 7.08894 19.279C6.91754 20.1872 7.56759 21.0532 8.54075 21.213Z" fill="#227AE2"/>
<path d="M48.7011 38.1352C47.0051 36.3536 46.0764 34.0844 46.0764 31.681V23.0449C46.0764 16.5136 41.5893 10.9431 35.3418 8.8753V5.00977C35.3418 2.24738 32.934 0 29.9744 0C27.0149 0 24.6071 2.24738 24.6071 5.00977V8.8753C18.3595 10.9431 13.8724 16.5136 13.8724 23.0449V31.6811C13.8724 34.0844 12.9437 36.3536 11.2478 38.1353C8.68361 38.511 6.71582 40.5869 6.71582 43.084C6.71582 45.8464 9.12361 48.0938 12.0832 48.0938H18.7849C19.6453 53.1348 24.335 57 29.9743 57C35.6135 57 40.3032 53.1348 41.1637 48.0938H47.8654C50.825 48.0938 53.2328 45.8464 53.2328 43.084C53.2328 40.5869 51.2652 38.511 48.7011 38.1352ZM28.1852 5.00977C28.1852 4.08897 28.9878 3.33984 29.9743 3.33984C30.9608 3.33984 31.7634 4.08897 31.7634 5.00977V8.10892C31.1757 8.04802 30.579 8.01562 29.9743 8.01562C29.3696 8.01562 28.7728 8.04802 28.1852 8.10892V5.00977ZM17.4505 31.6811V23.0449C17.4505 16.5994 23.0687 11.3555 29.9743 11.3555C36.8799 11.3555 42.4981 16.5994 42.4981 23.0449V31.6811C42.4981 33.9567 43.1174 36.1435 44.2805 38.0742H15.6681C16.8313 36.1435 17.4505 33.9567 17.4505 31.6811ZM29.9743 53.6602C26.3152 53.6602 23.2422 51.2812 22.4321 48.0938H37.5164C36.7064 51.2812 33.6334 53.6602 29.9743 53.6602ZM47.8654 44.7539H12.0832C11.0966 44.7539 10.294 44.0048 10.294 43.084C10.294 42.1632 11.0966 41.4141 12.0832 41.4141H47.8654C48.8519 41.4141 49.6545 42.1632 49.6545 43.084C49.6545 44.0048 48.8521 44.7539 47.8654 44.7539Z" fill="#227AE2"/>
</svg>
