<svg width="52" height="29" viewBox="0 0 52 29" fill="none" xmlns="http://www.w3.org/2000/svg">
<path fill-rule="evenodd" clip-rule="evenodd" d="M31.8715 6.35561C31.8715 9.51936 29.2955 12.0954 26.1317 12.0954C22.968 12.0954 20.392 9.51936 20.392 6.35561C20.392 3.19186 22.968 0.61586 26.1317 0.61586C29.2978 0.61586 31.8715 3.19186 31.8715 6.35561ZM29.5756 6.35561C29.5756 4.4569 28.0304 2.91176 26.1317 2.91176C24.2353 2.91176 22.6879 4.4569 22.6879 6.35561C22.6879 8.25432 24.233 9.79946 26.1317 9.79946C28.0304 9.79946 29.5756 8.25432 29.5756 6.35561ZM48.1402 8.65151C48.1402 11.8153 45.5642 14.3913 42.4005 14.3913C39.2367 14.3913 36.6607 11.8153 36.6607 8.65151C36.6607 5.48776 39.2367 2.91176 42.4005 2.91176C45.5665 2.91176 48.1402 5.48776 48.1402 8.65151ZM45.8443 8.65151C45.8443 6.7528 44.2992 5.20766 42.4005 5.20766C40.5041 5.20766 38.9566 6.7528 38.9566 8.65151C38.9566 10.5502 40.5018 12.0954 42.4005 12.0954C44.3015 12.0954 45.8443 10.5502 45.8443 8.65151ZM16.414 28.1667H18.7257L19.632 20.2274C19.8616 18.2093 21.3976 16.6872 23.2045 16.6872H29.0659C30.8705 16.6872 32.4064 18.2093 32.6383 20.2274L33.5446 28.1667H35.8517L34.9158 19.968C34.5554 16.7882 32.0368 14.3913 29.0613 14.3913H23.1999C20.229 14.3913 17.7127 16.7882 17.3499 19.968L16.414 28.1667ZM3.23698 28.1667L4.00843 21.9999C4.22195 20.2803 5.68903 18.9831 7.42473 18.9831H13.0933C13.3504 18.9831 13.6237 19.0221 13.9589 19.1116C14.5719 19.2632 15.2009 18.905 15.3617 18.292C15.5224 17.679 15.155 17.0499 14.542 16.8892C14.0117 16.7515 13.5525 16.6872 13.091 16.6872H7.42473C4.53648 16.6872 2.08905 18.8476 1.73089 21.7152L0.923828 28.1667H3.23698ZM51.7342 28.1667H49.4211L48.6499 22.0022C48.4341 20.2825 46.967 18.9854 45.2336 18.9854H39.565C39.1885 18.9854 38.8028 19.0542 38.4194 19.1897C37.8225 19.4032 37.1681 19.0887 36.9546 18.4917C36.7434 17.8948 37.0556 17.2382 37.6526 17.027C38.2839 16.802 38.9268 16.6895 39.565 16.6895H45.2336C48.1219 16.6895 50.5716 18.8499 50.9275 21.7175L51.7342 28.1667ZM15.9976 8.65151C15.9976 11.8153 13.4216 14.3913 10.2579 14.3913C7.09412 14.3913 4.51812 11.8153 4.51812 8.65151C4.51812 5.48776 7.09412 2.91176 10.2579 2.91176C13.4239 2.91176 15.9976 5.48776 15.9976 8.65151ZM13.7017 8.65151C13.7017 6.7528 12.1566 5.20766 10.2579 5.20766C8.36146 5.20766 6.81402 6.7528 6.81402 8.65151C6.81402 10.5502 8.36146 12.0954 10.2579 12.0954C12.1589 12.0954 13.7017 10.5502 13.7017 8.65151Z" fill="white"/>
</svg>
