<svg width="34" height="34" viewBox="0 0 34 34" fill="none" xmlns="http://www.w3.org/2000/svg">
<path d="M29.2599 25.5645C30.0025 24.443 30.5981 23.2147 31.0186 21.9073C31.4808 20.4703 31.7305 18.9329 31.7305 17.3317C31.7305 15.7396 31.4846 14.2121 31.0291 12.7849C30.6162 11.4916 30.03 10.2729 29.2974 9.15602C27.522 9.82801 25.6056 10.3618 23.5839 10.7339C21.4196 11.1323 19.1439 11.3457 16.8011 11.3457C14.4582 11.3457 12.1826 11.1323 10.0182 10.7339C7.99648 10.3618 6.08021 9.82801 4.30469 9.15602C3.57217 10.2729 2.98592 11.4916 2.57299 12.785C2.11744 14.2122 1.87152 15.7397 1.87152 17.3317C1.87152 18.9329 2.12124 20.4703 2.58347 21.9072C3.00399 23.2146 3.59951 24.4429 4.34214 25.5645C6.1141 24.8966 8.02534 24.3662 10.0408 23.9966C12.1986 23.6009 14.4666 23.389 16.801 23.389C19.1355 23.389 21.4036 23.6009 23.5614 23.9966C25.5768 24.3662 27.4879 24.8966 29.2599 25.5645ZM32.4391 22.3633C31.918 23.9836 31.1512 25.495 30.1829 26.8535C29.9986 27.1667 29.6083 27.307 29.2605 27.168C27.4232 26.4331 25.4188 25.8539 23.2925 25.464C21.2385 25.0873 19.0613 24.8855 16.801 24.8855C14.5407 24.8855 12.3636 25.0873 10.3096 25.4639C8.20228 25.8504 6.21462 26.4208 4.39079 27.1462C4.06922 27.303 3.67201 27.2103 3.45609 26.91C2.46921 25.5373 1.69111 24.0055 1.16289 22.3632C0.651301 20.7728 0.375 19.0819 0.375 17.3318C0.375 15.5961 0.647504 13.9168 1.15249 12.3349C1.66863 10.718 2.42607 9.21222 3.38189 7.86041C3.56758 7.55008 3.95629 7.41201 4.30246 7.55107C6.14468 8.29104 8.15436 8.87402 10.2872 9.2666C12.3479 9.64597 14.5328 9.8492 16.801 9.8492C19.0693 9.8492 21.2542 9.64597 23.3149 9.2666C25.4286 8.87759 27.4219 8.30311 29.2506 7.57272C29.5735 7.41482 29.9724 7.50884 30.1879 7.81119C31.1597 9.17523 31.9274 10.6989 32.4496 12.3348C32.9545 13.9167 33.2271 15.596 33.2271 17.3317C33.2271 19.0818 32.9507 20.7728 32.4391 22.3633Z" fill="#3565AC"/>
<path d="M28.3803 7.90393C27.0863 6.3166 25.4722 5.00017 23.6364 4.05318C21.591 2.99802 19.2672 2.4022 16.8012 2.4022C14.3351 2.4022 12.0113 2.99802 9.96585 4.05318C8.13001 5.00018 6.51595 6.31661 5.22194 7.90393C6.807 8.47833 8.50438 8.93835 10.2872 9.26652C12.3481 9.64589 14.5329 9.84913 16.8012 9.84913C19.0695 9.84913 21.2543 9.64589 23.3151 9.26652C25.0979 8.93835 26.7953 8.47833 28.3803 7.90393ZM24.3204 2.72619C26.6402 3.92291 28.6384 5.6566 30.1508 7.76289C30.2008 7.82228 30.2424 7.89041 30.2729 7.96643C30.427 8.34982 30.241 8.78562 29.8575 8.93964C27.9276 9.71485 25.8196 10.3223 23.584 10.7339C21.4197 11.1322 19.144 11.3456 16.8011 11.3456C14.4583 11.3456 12.1826 11.1322 10.0183 10.7339C7.80283 10.326 5.71393 9.72419 3.79828 8.95893C3.72544 8.93592 3.65504 8.90136 3.58957 8.85473C3.25297 8.61496 3.17451 8.14765 3.41428 7.81112C4.93082 5.68249 6.94385 3.93226 9.28186 2.72613C11.5374 1.56267 14.094 0.90564 16.8012 0.90564C19.5082 0.90564 22.0648 1.56266 24.3204 2.72619Z" fill="#3565AC"/>
<path d="M16.8022 32.2613C19.2586 32.2613 21.5725 31.6713 23.6098 30.6258C25.4352 29.6891 27.0429 28.3864 28.3366 26.8145C26.7581 26.2454 25.0683 25.7895 23.2936 25.464C21.2396 25.0873 19.0625 24.8856 16.8022 24.8856C14.5419 24.8856 12.3648 25.0873 10.3107 25.464C8.53613 25.7895 6.84634 26.2453 5.26784 26.8145C6.56155 28.3864 8.16931 29.6891 9.99467 30.6258C12.032 31.6713 14.3457 32.2613 16.8022 32.2613ZM24.2879 31.9528C22.0393 33.1067 19.4945 33.7579 16.8022 33.7579C14.1099 33.7579 11.5651 33.1067 9.31649 31.9528C7.00545 30.7668 5.01285 29.0501 3.50003 26.9642C3.44649 26.9027 3.40213 26.8312 3.37008 26.7511C3.21666 26.3674 3.40335 25.932 3.78704 25.7785C5.71287 25.0084 7.81408 24.4052 10.0419 23.9967C12.1997 23.601 14.4678 23.3891 16.8022 23.3891C19.1367 23.3891 21.4047 23.601 23.5624 23.9967C25.7698 24.4015 27.8522 24.9991 29.7635 25.7592C29.8378 25.7825 29.9097 25.8178 29.9764 25.8657C30.3118 26.107 30.3883 26.5746 30.1471 26.9101C28.6294 29.021 26.6194 30.7564 24.2879 31.9528Z" fill="#3565AC"/>
<path d="M23.6438 17.426C23.6438 13.2134 22.7985 9.41268 21.4318 6.67336C20.1442 4.09269 18.4219 2.49656 16.5702 2.49656C14.7185 2.49656 12.9961 4.0927 11.7086 6.67336C10.3419 9.41268 9.49657 13.2134 9.49657 17.426C9.49657 21.6385 10.342 25.4392 11.7086 28.1786C12.9961 30.7592 14.7185 32.3554 16.5702 32.3554C18.4219 32.3554 20.1442 30.7592 21.4318 28.1786C22.7985 25.4392 23.6438 21.6385 23.6438 17.426ZM22.7704 6.00699C24.2346 8.94181 25.1403 12.98 25.1403 17.426C25.1403 21.8719 24.2346 25.9101 22.7704 28.8449C21.227 31.9385 19.0383 33.8519 16.5702 33.8519C14.1021 33.8519 11.9133 31.9385 10.3699 28.8449C8.90576 25.9101 8 21.8719 8 17.426C8 12.98 8.90577 8.94181 10.3699 6.00699C11.9133 2.91338 14.1021 1 16.5702 1C19.0383 1 21.227 2.91338 22.7704 6.00699Z" fill="#3565AC"/>
<path d="M17.5493 1.65389C17.5493 1.24065 17.2143 0.90564 16.8011 0.90564C16.3878 0.90564 16.0527 1.24065 16.0527 1.65389V33.0094C16.0527 33.4227 16.3878 33.7577 16.8011 33.7577C17.2143 33.7577 17.5493 33.4227 17.5493 33.0094V1.65389Z" fill="#3565AC"/>
<path d="M1.12325 16.5836C0.710009 16.5836 0.375 16.9186 0.375 17.3319C0.375 17.7451 0.710009 18.0801 1.12325 18.0801H32.4788C32.892 18.0801 33.2271 17.7451 33.2271 17.3319C33.2271 16.9186 32.892 16.5836 32.4788 16.5836H1.12325Z" fill="#3565AC"/>
<path d="M4.08088 31.5485C4.08088 31.3419 3.99718 31.1547 3.86177 31.0194C3.72642 30.8841 3.53936 30.8004 3.33263 30.8004C3.12597 30.8004 2.93884 30.8841 2.80357 31.0194C2.66816 31.1547 2.58446 31.3419 2.58446 31.5485C2.58446 31.7552 2.66823 31.9423 2.80357 32.0777C2.93884 32.213 3.12597 32.2968 3.33263 32.2968C3.53936 32.2968 3.72643 32.213 3.86177 32.0777C3.99711 31.9423 4.08088 31.7552 4.08088 31.5485ZM4.91988 29.9614C5.32613 30.3675 5.57745 30.9288 5.57745 31.5485C5.57745 32.1683 5.32613 32.7295 4.91988 33.1358C4.51363 33.542 3.95245 33.7933 3.33263 33.7933C2.71281 33.7933 2.15163 33.542 1.74545 33.1358C1.3392 32.7295 1.08789 32.1683 1.08789 31.5485C1.08789 30.9288 1.33921 30.3675 1.74545 29.9614C2.15163 29.5551 2.71281 29.3038 3.33263 29.3038C3.95245 29.3038 4.51363 29.5551 4.91988 29.9614Z" fill="#3565AC"/>
<path d="M31.7664 3.11496C31.7664 2.90831 31.6827 2.72117 31.5473 2.58583C31.412 2.45049 31.2248 2.36672 31.0182 2.36672C30.8115 2.36672 30.6244 2.45049 30.489 2.58583C30.3537 2.72117 30.2699 2.90831 30.2699 3.11496C30.2699 3.32162 30.3537 3.50876 30.489 3.6441C30.6244 3.77944 30.8115 3.86313 31.0182 3.86313C31.2248 3.86313 31.412 3.77944 31.5473 3.6441C31.6827 3.50876 31.7664 3.32162 31.7664 3.11496ZM32.6054 1.52771C33.0116 1.93396 33.2629 2.49515 33.2629 3.11496C33.2629 3.73471 33.0116 4.29597 32.6054 4.70214C32.1992 5.10839 31.638 5.3597 31.0182 5.3597C30.3984 5.3597 29.8372 5.10839 29.431 4.70214C29.0248 4.29597 28.7734 3.73471 28.7734 3.11496C28.7734 2.49515 29.0248 1.93396 29.431 1.52771C29.8372 1.12154 30.3984 0.870148 31.0182 0.870148C31.638 0.870148 32.1992 1.12154 32.6054 1.52771Z" fill="#3565AC"/>
</svg>
