<svg width="108" height="90" viewBox="0 0 108 90" fill="none" xmlns="http://www.w3.org/2000/svg">
<path d="M51.2345 36.6606C52.041 36.7797 53.7345 37.3752 54.0571 38.8044C54.4603 40.5908 54.4603 41.6627 54.0571 42.3773C53.7345 42.949 52.3098 44.0447 51.6378 44.521C52.1754 44.7592 53.3313 45.3785 53.6539 45.9502C54.0571 46.6648 54.4603 47.3794 54.4603 47.7367C54.4603 48.0225 54.1915 48.8086 54.0571 49.1658C54.3259 50.2377 54.7829 52.5244 54.4603 53.0961C54.0571 53.8106 54.0571 55.9544 53.2507 56.3117C52.6055 56.5975 51.6378 58.0982 51.2345 58.8127C51.2345 59.17 51.2345 60.0275 51.2345 60.5992C51.2345 61.1709 50.9657 61.552 50.8313 61.6711C51.3689 61.552 52.6055 61.6711 53.2507 63.1003C54.0571 64.8867 54.8636 69.7656 54.0571 70.6034L53.6539 72.3899L54.0571 73.1044V79.5357C51.3689 80.6076 45.9119 82.7513 45.5894 82.7513C44.9173 84.1805 42.9281 86.9674 40.3474 86.6816C37.1216 86.3243 35.5087 85.6097 35.1055 83.8232C33.3581 84.2996 29.7022 85.1809 29.0571 84.8951C28.2506 84.5378 25.428 83.4659 24.6216 82.0368C20.8581 81.7986 13.0893 80.679 12.1216 78.1065C11.8527 77.8683 11.2345 76.9632 10.9119 75.2482C10.3742 75.1291 9.37961 74.6051 9.70219 73.4617C10.0248 72.3184 10.3742 72.0326 10.5087 72.0326C9.43339 71.6753 7.2022 70.6034 6.87962 69.1742C6.47639 68.8169 5.75059 67.6736 6.07317 65.9586C5.26671 64.8867 3.89574 62.3142 4.86348 60.5992C3.78821 59.2891 2.04088 56.0259 3.65379 53.4534C5.2667 50.8808 5.93874 50.4759 6.07315 50.595C5.53552 50.2377 4.54089 49.0229 4.86347 47.0221C5.18605 45.0213 6.8796 38.328 7.68606 35.2314C8.3581 33.6832 9.70219 30.5152 9.70219 30.2293C9.70219 29.872 11.7183 24.5127 12.5248 24.1554C13.1968 23.3217 14.6216 21.6543 14.9441 21.6543C15.6162 20.5824 17.0409 18.4387 17.3635 18.4387C17.7667 18.4387 19.3796 15.5803 20.5893 15.5803C21.799 15.5803 25.0248 10.5782 26.6377 10.9355C28.2506 11.2928 33.8958 4.14699 36.7184 5.57616C37.5248 4.86157 39.541 3.4324 41.1539 3.4324C43.17 3.4324 41.9603 3.78969 43.5732 3.4324C45.1861 3.0751 45.9926 3.0751 46.799 3.0751C47.6055 3.0751 49.6216 3.78969 50.0248 4.14698C50.4281 4.50427 53.2507 4.86156 53.6539 5.21886C54.0571 5.57616 55.2668 5.93344 55.2668 7.00532C55.2668 8.0772 55.2668 9.86366 54.8636 10.5782C54.541 11.1499 54.1915 11.2928 54.0571 11.2928C54.0571 12.1265 53.9765 13.7939 53.6539 13.7939C53.2507 13.7939 55.67 13.4366 54.8636 14.8658C54.2184 16.0091 53.7883 16.2949 53.6539 16.2949C53.9227 16.2949 54.4603 16.4378 54.4603 17.0095C54.4603 17.7241 55.67 19.1533 54.8636 20.2251C54.2184 21.0826 54.0571 21.297 54.0571 21.297C54.4603 22.3689 55.1861 24.727 54.8636 25.5845C54.541 26.442 52.8474 28.562 52.041 29.5148C52.713 29.7529 54.0571 30.4437 54.0571 31.3012C54.0571 32.3731 55.2668 33.445 54.4603 34.5169C53.8152 35.3744 52.041 36.3033 51.2345 36.6606Z" stroke="black" stroke-width="5" stroke-linejoin="round"/>
<path fill-rule="evenodd" clip-rule="evenodd" d="M62.1611 5.15021C62.8657 5.15013 63.5114 5.15005 64.9034 5.4584C65.2876 5.54352 65.6196 5.6134 65.8889 5.64452C66.0428 5.66231 66.239 5.67575 66.4615 5.65782C66.7021 5.63844 66.8883 5.58904 66.9984 5.5565C67.1205 5.52044 67.0492 5.5389 67.0633 5.53688C67.1237 5.52825 67.3184 5.50751 67.7715 5.50751C68.0457 5.50751 68.577 5.65878 69.2863 6.05163C69.9463 6.41712 70.5289 6.86178 70.8308 7.12928C71.4469 7.67518 72.325 7.8037 73.0689 7.46382C73.1354 7.46722 73.3628 7.49529 73.8374 7.72647C74.5692 8.08286 75.4387 8.70615 76.4094 9.47808C76.7365 9.73816 77.0939 10.0313 77.4561 10.3284C78.0595 10.8232 78.6761 11.3288 79.1877 11.7107C79.6172 12.0314 80.0957 12.3615 80.5731 12.6022C80.8922 12.763 81.5294 13.0554 82.2882 13.0207C82.3419 13.0555 82.4069 13.1011 82.4834 13.1596C82.8905 13.4705 83.3837 13.9552 83.9671 14.5621C84.0862 14.6859 84.2107 14.8168 84.3386 14.9511C84.7814 15.4163 85.2638 15.9231 85.6935 16.3232C85.9753 16.5855 86.3054 16.8704 86.6556 17.1004C86.8957 17.2582 87.3664 17.543 87.9757 17.6297C87.9771 17.6309 87.9785 17.632 87.9799 17.6332C88.1568 17.7779 88.3861 18.0177 88.6675 18.3502C88.8021 18.5092 88.9339 18.6715 89.0695 18.8392L89.1017 18.879C89.2221 19.0279 89.3528 19.1896 89.4739 19.3327C89.5972 19.4783 89.7673 19.6731 89.9531 19.8438C90.0449 19.9282 90.1951 20.0579 90.3904 20.1773C90.4147 20.1921 90.4454 20.2104 90.4822 20.2308C90.6031 20.3772 90.7637 20.5883 90.9543 20.854C91.4013 21.4771 91.9006 22.2423 92.2231 22.7566C92.4302 23.087 92.7222 23.3465 93.0608 23.5141C93.1753 23.6206 93.3364 23.7843 93.5344 23.999C93.9736 24.4752 94.4666 25.0627 94.785 25.4577C94.8837 25.58 94.9955 25.6903 95.1182 25.7868C95.1746 25.8717 95.255 26.0045 95.3573 26.1933C95.6141 26.6675 95.9122 27.3132 96.2033 28.0011C96.4911 28.6812 96.7548 29.3611 96.9438 29.8846C97.039 30.148 97.1099 30.3573 97.1543 30.4994C97.1621 30.5243 97.1684 30.545 97.1734 30.5617C97.1928 30.6933 97.2176 30.7893 97.2259 30.8216C97.2266 30.8241 97.2271 30.8262 97.2276 30.8279C97.2532 30.9286 97.2831 31.0254 97.3089 31.1048C97.3617 31.2669 97.4299 31.4548 97.5025 31.6471C97.6496 32.0366 97.8476 32.5296 98.0601 33.0463C98.4607 34.0204 98.9344 35.1305 99.2715 35.9094C100.104 39.1141 101.715 45.5049 102.013 47.3524C102.107 47.9356 102.002 48.3231 101.895 48.557C101.797 48.7703 101.691 48.8689 101.683 48.8795C101.613 48.9278 101.544 48.9817 101.476 49.0419C100.66 49.765 100.543 50.9963 101.208 51.8604C101.44 52.1622 101.74 52.3832 102.07 52.5174C102.335 52.8139 102.803 53.4224 103.513 54.5557C103.898 55.1691 103.955 55.9613 103.679 56.9326C103.4 57.9126 102.849 58.8067 102.458 59.2827C101.914 59.9448 101.834 60.8729 102.255 61.619C102.311 61.7181 102.407 62.0854 102.149 62.8781C101.911 63.6094 101.489 64.3189 101.194 64.711C100.843 65.177 100.705 65.7691 100.813 66.3422C100.904 66.8257 100.84 67.171 100.763 67.3874C100.724 67.5008 100.679 67.5826 100.647 67.6316C100.64 67.643 100.634 67.6517 100.629 67.6578C100.335 67.9328 100.127 68.2876 100.031 68.679C100.02 68.6966 99.9941 68.737 99.9389 68.7994C99.8199 68.9341 99.6276 69.1009 99.3577 69.2819C98.8102 69.6491 98.16 69.9312 97.7624 70.0633C96.7962 70.3844 96.2056 71.3589 96.3682 72.364C96.4385 72.7981 96.6402 73.1824 96.9288 73.4791C96.438 73.7801 96.0844 74.2785 95.9742 74.8646C95.845 75.5515 95.6652 76.0295 95.5219 76.3246C95.4498 76.473 95.3904 76.5681 95.3565 76.6169C95.3544 76.6199 95.3525 76.6226 95.3507 76.6251C95.1413 76.8306 94.9775 77.0784 94.8706 77.3523C94.8714 77.35 94.8717 77.3488 94.8713 77.3485C94.8656 77.3449 94.7129 77.5753 94.0295 77.9235C93.305 78.2927 92.2954 78.6358 91.1005 78.9335C88.7238 79.5256 85.972 79.8519 84.1727 79.9658C83.4722 80.0101 82.8415 80.4056 82.4966 81.017C82.4809 81.0447 82.3836 81.183 82.1016 81.4046C81.835 81.6142 81.4909 81.8304 81.098 82.0431C80.4777 82.379 79.8897 82.6291 79.4221 82.828C79.3883 82.8424 79.3551 82.8565 79.3226 82.8704C79.269 82.8667 79.2019 82.861 79.1201 82.8521C78.7502 82.8121 78.2483 82.7277 77.6669 82.6107C76.5134 82.3785 75.2103 82.0514 74.3657 81.8212C73.8194 81.6722 73.236 81.753 72.7507 82.0448C72.2654 82.3366 71.9204 82.814 71.7957 83.3663C71.7398 83.614 71.6615 83.7589 71.2983 83.9482C70.7985 84.2087 69.9101 84.4462 68.3495 84.6191C67.9064 84.6682 67.338 84.475 66.6535 83.8392C65.9813 83.2147 65.4607 82.3931 65.2139 81.8683C64.9271 81.2585 64.3668 80.8335 63.7195 80.7119C63.699 80.7056 63.6714 80.6968 63.6358 80.6851C63.482 80.6348 63.2563 80.5557 62.9638 80.4494C62.3833 80.2384 61.6013 79.9424 60.7346 79.6089C59.5032 79.1349 58.121 78.5927 56.9434 78.127V73.6495L57.0787 73.4096C57.3317 72.9614 57.409 72.4351 57.2957 71.933L56.8924 70.1465C56.8419 69.9227 56.7549 69.7099 56.6358 69.5163C56.6276 69.4539 56.619 69.3638 56.6139 69.2422C56.5955 68.8013 56.6319 68.1854 56.7244 67.4756C56.9147 66.0147 57.2841 64.5786 57.566 63.954C57.6276 63.8176 57.681 63.7596 57.7001 63.741C57.7194 63.722 57.7304 63.7174 57.7338 63.7159C57.7345 63.7157 57.7353 63.7153 57.736 63.7151C58.6298 63.872 59.5273 63.4285 59.9427 62.6137C60.3046 61.904 60.2237 61.0637 59.766 60.4416V58.8127C59.766 58.4554 59.6737 58.1042 59.4981 57.793C59.2634 57.3771 58.8736 56.7464 58.4371 56.161C58.2192 55.8688 57.9641 55.5533 57.689 55.2719C57.5329 55.1123 57.3074 54.8969 57.0233 54.7014C57.0004 54.6212 56.9734 54.5162 56.9429 54.381C56.9108 54.2388 56.8804 54.09 56.846 53.9204L56.8421 53.9013C56.8103 53.7447 56.7739 53.5655 56.7349 53.3928C56.6829 53.1624 56.5936 52.779 56.4293 52.3957C56.4308 52.2136 56.4532 51.9441 56.5004 51.603C56.5949 50.92 56.7592 50.1565 56.881 49.6706C56.9837 49.2612 56.9591 48.8303 56.8105 48.4352C56.7566 48.292 56.6739 48.0573 56.6066 47.8371C56.71 47.6279 56.8483 47.379 57.0188 47.0762C57.0817 47.0216 57.1835 46.945 57.3247 46.8538C57.6156 46.6659 57.9409 46.5013 58.1282 46.4183C58.8106 46.116 59.278 45.4704 59.3524 44.7278C59.4268 43.9851 59.0966 43.2598 58.4877 42.8281C58.1879 42.6157 57.7112 42.258 57.2841 41.8981C57.0701 41.7177 56.8906 41.5553 56.7595 41.4235C56.7192 41.3829 56.6899 41.3516 56.6695 41.3291C56.6574 41.2775 56.6409 41.1735 56.6409 40.9928C56.6409 40.632 56.7061 40.0868 56.8924 39.2612C56.8928 39.2597 56.8931 39.2586 56.8948 39.2551C56.8971 39.2506 56.9045 39.2375 56.9225 39.2159C56.9617 39.1692 57.0396 39.0971 57.1743 39.0155C57.465 38.8391 57.8178 38.7395 57.994 38.7135C58.9079 38.5785 59.6225 37.8557 59.747 36.9403C59.8715 36.025 59.376 35.1376 58.5314 34.7634C58.2013 34.6171 57.6398 34.3377 57.1039 34.0084C56.8378 33.8448 56.6023 33.6838 56.415 33.5357C56.3973 33.5216 56.3803 33.508 56.364 33.4947C56.3853 33.4431 56.4098 33.385 56.4391 33.3158L56.4446 33.3026C56.4978 33.1769 56.5686 33.0097 56.6341 32.8358C56.7289 32.5838 56.8483 32.229 56.9072 31.8095C56.9955 31.7491 57.1037 31.6857 57.2232 31.6251C57.3662 31.5527 57.4947 31.5 57.5776 31.4706C58.2202 31.2429 58.7099 30.7141 58.8877 30.056C59.0655 29.3979 58.9087 28.6944 58.4683 28.1741C58.0858 27.7223 57.4883 26.9877 56.9546 26.2726C56.6872 25.9145 56.4494 25.5792 56.2666 25.2974C56.1647 25.1402 56.0985 25.0277 56.058 24.9553C56.0591 24.9317 56.0607 24.9036 56.0634 24.8708C56.0812 24.6503 56.1315 24.3491 56.2149 23.9874C56.381 23.267 56.6329 22.4996 56.8105 22.0277C57.0605 21.3631 56.9533 20.6168 56.5265 20.0494L55.9025 19.2201C55.9081 19.2028 55.9143 19.1842 55.9213 19.1641C55.9707 19.0218 56.0141 18.9185 56.0738 18.7766C56.1121 18.6856 56.157 18.5787 56.2145 18.4355C56.2558 18.3326 56.3048 18.2062 56.3512 18.0674C56.9481 17.7029 57.3466 17.0455 57.3466 16.2949C57.3466 15.8376 57.1986 15.4147 56.9479 15.0718C57.1833 14.7713 57.4038 14.3196 57.3919 13.7454C57.3809 13.2187 57.1783 12.8246 57.0063 12.5828C56.9613 12.175 56.9434 11.6555 56.9434 11.2928C56.9434 10.5083 56.508 9.82539 55.8656 9.47267C55.865 9.4698 55.8644 9.46689 55.8638 9.46393C55.8295 9.29146 55.7999 9.05828 55.7782 8.77009C55.7444 8.32076 55.7363 7.8367 55.7343 7.38676C55.78 7.35874 55.8354 7.32563 55.9048 7.28466L55.9165 7.27771C55.993 7.23254 56.103 7.16761 56.2083 7.09994C56.2544 7.07029 56.3111 7.03292 56.3741 6.98824C56.4071 6.97829 56.448 6.96649 56.4978 6.95292C56.767 6.87951 57.1165 6.80159 57.5348 6.70892L57.5639 6.70248C57.9456 6.61794 58.3895 6.51961 58.7659 6.41699C58.959 6.36435 59.1787 6.29883 59.3878 6.2187C59.5179 6.16886 59.8467 6.04132 60.1653 5.7927C60.1974 5.77574 60.2479 5.7506 60.3189 5.71838C60.5033 5.63467 60.7536 5.53599 61.0316 5.44124C61.3089 5.34674 61.5833 5.26655 61.8137 5.21239C61.9935 5.17011 62.0929 5.15658 62.1247 5.15225C62.1396 5.15023 62.1397 5.15022 62.1263 5.15022L62.1611 5.15021ZM56.2691 7.0226C56.2381 7.03452 56.2452 7.03426 56.2785 7.01914C56.2748 7.02046 56.2717 7.02162 56.2691 7.0226ZM52.7877 12.348C52.5832 12.5103 52.3862 12.7161 52.2191 12.9774C51.5104 14.0855 51.8852 15.231 52.2546 15.8856C52.3315 16.0218 52.408 16.1517 52.4841 16.2753C52.4398 16.4415 52.4101 16.6169 52.3972 16.8009C52.3885 16.8245 52.3772 16.854 52.3628 16.8899C52.3501 16.9216 52.3302 16.9692 52.3056 17.028C52.2247 17.2216 52.0932 17.5364 52.0007 17.8026C51.7548 18.5108 51.3357 20.0534 52.4036 21.4727L52.55 21.6673C52.4149 22.1009 52.2806 22.5788 52.1708 23.055C52.0627 23.524 51.9668 24.04 51.9267 24.5363C51.8917 24.9682 51.8718 25.6564 52.1196 26.3152C52.2842 26.7527 52.5565 27.2039 52.7845 27.5555C53.0351 27.942 53.3315 28.3571 53.6287 28.7552C53.6901 28.8374 53.7521 28.9196 53.8143 29.0016C53.3324 29.4868 52.8128 30.2336 52.7937 31.2437C52.7878 31.2649 52.775 31.3069 52.7496 31.3745C52.7166 31.4624 52.6767 31.5574 52.617 31.6983L52.6115 31.7114C52.5583 31.8371 52.4875 32.0044 52.422 32.1784C52.1489 32.9044 51.742 34.3492 52.8068 35.7644C53.0489 36.0862 53.3487 36.3819 53.6632 36.6462C53.2997 37.1033 52.9981 37.6652 52.8441 38.3475C52.4404 40.1359 52.2332 41.93 53.061 43.3971C53.2849 43.7938 53.5997 44.1316 53.8162 44.3494C53.8283 44.3615 53.8404 44.3737 53.8526 44.3858C53.709 44.5513 53.5756 44.733 53.4642 44.9304L53.4472 44.9607C53.258 45.2958 53.0291 45.7014 52.849 46.0739C52.755 46.2683 52.6533 46.4958 52.5718 46.7332C52.5004 46.9409 52.3899 47.3074 52.3899 47.7367C52.3899 48.0555 52.4535 48.3498 52.4862 48.4926C52.5282 48.6765 52.5808 48.8629 52.6305 49.0269C52.6562 49.1118 52.6831 49.1966 52.7101 49.2795C52.5945 49.8022 52.4731 50.4289 52.3894 51.0341C52.3296 51.4657 52.2814 51.9395 52.2791 52.3803C52.2779 52.6008 52.2877 52.8549 52.3265 53.114C52.3593 53.3336 52.4304 53.6837 52.6198 54.0459C52.6257 54.0665 52.6498 54.1436 52.6866 54.3066C52.7153 54.4339 52.7437 54.5738 52.7787 54.7462C52.812 54.9102 52.851 55.102 52.8945 55.2947C52.9766 55.6584 53.1019 56.1549 53.3143 56.6203C53.4957 57.0179 53.8871 57.7245 54.6857 58.1377C54.6958 58.1474 54.7077 58.1592 54.7214 58.1732C54.8218 58.2759 54.9549 58.4339 55.11 58.6419C55.2908 58.8844 55.4669 59.1481 55.6157 59.385V60.1424C54.9075 60.5554 54.2455 61.2228 53.7834 62.2465C53.2589 63.4083 52.8218 65.305 52.6089 66.9395C52.4998 67.7775 52.4354 68.65 52.4673 69.4155C52.4832 69.7958 52.5251 70.2115 52.6236 70.6108C52.6755 70.8213 52.7632 71.1132 52.9249 71.4186L53.0712 72.0666L53.061 72.0847C52.8854 72.3959 52.7932 72.7471 52.7932 73.1044V79.5357C52.7932 80.3851 53.3107 81.1487 54.0997 81.4632C55.4482 82.001 57.4928 82.8082 59.2439 83.4821C60.1178 83.8185 60.9285 84.1255 61.5459 84.3499C61.6737 84.3963 61.796 84.4403 61.9108 84.4808C62.3684 85.2489 63.0151 86.1239 63.829 86.88C64.9523 87.9234 66.6689 88.9808 68.8064 88.7441C70.4717 88.5596 72.0026 88.2612 73.2165 87.6285C73.8995 87.2725 74.4748 86.8138 74.9216 86.2484C75.5434 86.3991 76.2114 86.5512 76.848 86.6793C77.4796 86.8064 78.1218 86.9185 78.6735 86.9783C78.9468 87.0078 79.2416 87.0295 79.5241 87.0256C79.7343 87.0226 80.2215 87.0083 80.7089 86.7923C80.7641 86.7679 80.8446 86.7338 80.9452 86.6911C81.3963 86.5001 82.2536 86.137 83.0741 85.6926C83.7337 85.3355 84.6411 84.7904 85.3672 84.0376C87.2804 83.8726 89.8098 83.5321 92.1038 82.9606C93.4426 82.627 94.7919 82.193 95.9138 81.6213C96.839 81.1499 97.9524 80.4149 98.5543 79.265C99.0239 78.6887 99.4743 77.8201 99.7975 76.7075C100.02 76.5612 100.239 76.3843 100.442 76.1715C101.169 75.4093 101.574 74.2828 101.247 72.9965C101.389 72.9115 101.53 72.8222 101.669 72.7288C102.379 72.2531 103.39 71.4366 103.878 70.2404C104.524 69.4224 105.08 68.1169 105 66.4873C105.398 65.8479 105.81 65.0391 106.096 64.1621C106.376 63.2994 106.61 62.1289 106.37 60.9347C106.868 60.1504 107.36 59.1608 107.671 58.0667C108.134 56.4358 108.258 54.3101 107.03 52.351C106.5 51.5067 106.043 50.8452 105.646 50.3331C106.098 49.374 106.345 48.145 106.111 46.6918C105.768 44.5678 104.04 37.7524 103.247 34.7084C103.22 34.6048 103.185 34.5034 103.143 34.4052C102.81 33.6384 102.312 32.4724 101.898 31.4677C101.691 30.9631 101.511 30.5137 101.385 30.1805C101.33 30.0345 101.291 29.9262 101.266 29.8531C101.245 29.7231 101.22 29.6288 101.213 29.6018C101.213 29.5991 101.212 29.5971 101.212 29.5958C101.184 29.4856 101.149 29.3698 101.116 29.2614C101.047 29.0407 100.954 28.7698 100.847 28.4749C100.633 27.8819 100.342 27.1327 100.025 26.3836C99.7116 25.6423 99.3544 24.8589 99.0064 24.2165C98.8347 23.8994 98.6397 23.5692 98.4301 23.2816C98.3251 23.1377 98.1918 22.9703 98.0313 22.81C97.9809 22.7597 97.9154 22.6974 97.835 22.6303C97.4884 22.2079 97.025 21.6622 96.5853 21.1854C96.329 20.9075 96.0471 20.6161 95.7838 20.3808C95.6943 20.3007 95.5844 20.2068 95.4611 20.1143C95.1322 19.6031 94.7193 18.9824 94.3267 18.4351C94.0741 18.0828 93.8003 17.7195 93.547 17.4283C93.4253 17.2885 93.2631 17.1124 93.0779 16.9544C92.9867 16.8765 92.8416 16.7612 92.6538 16.6553C92.6486 16.6524 92.643 16.6493 92.6372 16.646C92.5487 16.5414 92.4481 16.4169 92.3197 16.2582L92.2964 16.2293C92.1611 16.0621 92.0031 15.8671 91.8353 15.6689C91.5119 15.2868 91.0859 14.812 90.6075 14.4207C90.2624 14.1384 89.6364 13.6832 88.8188 13.5458C88.7463 13.4878 88.6482 13.4035 88.5214 13.2855C88.1922 12.979 87.8345 12.6035 87.4136 12.1615C87.2699 12.0107 87.1188 11.8521 86.959 11.6858C86.3832 11.0869 85.6919 10.388 85.0027 9.86151C84.6564 9.59694 84.2348 9.31629 83.7627 9.11853C83.4041 8.96834 82.9107 8.82199 82.3453 8.84418C82.192 8.75619 81.9712 8.60961 81.6704 8.38505C81.213 8.04353 80.7484 7.66145 80.2224 7.22888C79.8497 6.92235 79.4462 6.59047 78.9925 6.22972C77.9975 5.4385 76.8257 4.56562 75.6547 3.99528C74.8912 3.62339 73.8319 3.23454 72.7065 3.32325C72.2946 3.02299 71.8141 2.70735 71.297 2.42099C70.3935 1.92061 69.1102 1.35729 67.7715 1.35729C67.2165 1.35729 66.8064 1.38121 66.4762 1.42841C66.3626 1.44464 66.2597 1.46342 66.1643 1.48439C66.0725 1.4657 65.9546 1.44045 65.801 1.40641C63.9899 1.00523 63.0209 1 62.1263 1C61.3462 1 60.3512 1.28852 59.6928 1.51289C59.3156 1.64144 58.9359 1.78841 58.6037 1.93917C58.4111 2.02656 58.1011 2.1727 57.8065 2.37502C57.772 2.3855 57.7284 2.39817 57.6742 2.41292C57.405 2.48633 57.0556 2.56426 56.6372 2.65693L56.6082 2.66335C56.2265 2.7479 55.7825 2.84623 55.4061 2.94886C55.213 3.0015 54.9933 3.06702 54.7842 3.14715C54.6473 3.19958 54.2906 3.338 53.9571 3.61291C53.9394 3.62368 53.891 3.65399 53.7939 3.71134L53.7719 3.72436C53.6115 3.81901 53.333 3.9833 53.0587 4.19161C52.4656 4.64207 51.5835 5.53839 51.5835 7.00533V7.03029C51.5835 7.55462 51.5834 8.33331 51.6397 9.08146C51.6684 9.46319 51.7145 9.8776 51.7936 10.2746C51.8669 10.643 51.9951 11.1382 52.2546 11.598C52.4114 11.8759 52.5895 12.1272 52.7877 12.348ZM57.9029 2.34324C57.934 2.33133 57.9268 2.33159 57.8935 2.34671C57.8972 2.34539 57.9003 2.34423 57.9029 2.34324ZM82.529 8.93418C82.5285 8.93282 82.5127 8.92559 82.4834 8.91655C82.515 8.93102 82.5296 8.93554 82.529 8.93418ZM88.9683 13.6517C88.968 13.6507 88.9568 13.6434 88.9353 13.6324C88.9578 13.6471 88.9686 13.6526 88.9683 13.6517ZM104.023 52.3081C104.009 52.3177 103.995 52.327 103.981 52.3361C103.988 52.3319 103.994 52.3276 104.001 52.3233C104.008 52.3183 104.016 52.3132 104.023 52.3081ZM55.8573 19.3959C55.8576 19.3956 55.8586 19.3902 55.8592 19.3805C55.8574 19.3912 55.857 19.3961 55.8573 19.3959ZM57.0901 54.8977C57.1023 54.9244 57.1029 54.9196 57.0885 54.8941C57.089 54.8953 57.0896 54.8965 57.0901 54.8977ZM56.653 69.6167C56.6586 69.6393 56.6595 69.6353 56.6517 69.6114C56.6522 69.6133 56.6526 69.6151 56.653 69.6167ZM63.7649 80.7255C63.8117 80.7383 63.8005 80.7325 63.7501 80.7212C63.7572 80.7233 63.7621 80.7247 63.7649 80.7255ZM79.4656 82.8757C79.5115 82.8751 79.506 82.8717 79.4634 82.8758C79.4642 82.8758 79.4649 82.8758 79.4656 82.8757ZM97.189 30.6166C97.1885 30.6145 97.1873 30.6103 97.1855 30.6038C97.1939 30.6437 97.198 30.6522 97.189 30.6166ZM87.8634 17.5497C87.8635 17.5505 87.8729 17.5568 87.891 17.5659C87.8723 17.5533 87.8633 17.5488 87.8634 17.5497Z" fill="black"/>
<rect x="52.0508" y="43.7451" width="5.62873" height="9.64925" fill="white"/>
<path d="M86.1038 46.0867L84.8494 49.6569H87.4161L86.1038 46.0867ZM87.9178 41.8796L92.8196 54.6552L89.3652 55.0026L88.4196 52.4166H83.8844L82.9774 55.0026H79.4844L84.4055 41.8796H87.9178Z" fill="#C03131"/>
<path d="M74.4219 55.0026V41.8796H77.9342V55.0026H74.4219Z" fill="#C03131"/>
<path d="M63.0781 55.0026V41.8796H71.7817L72.1098 44.6393H66.5905V47.0323H70.6238L70.9519 49.792H66.5905V52.2429H72.3607L72.6888 55.0026H63.0781Z" fill="#C03131"/>
<path d="M49.207 55.0026V41.8796H54.958C56.9779 41.8796 58.5153 42.4972 59.5703 43.7323C60.6253 44.9545 61.1528 46.4984 61.1528 48.3639C61.1528 50.4095 60.5674 52.0306 59.3966 53.2271C58.2259 54.4108 56.7206 55.0026 54.8808 55.0026H49.207ZM54.7843 44.6393H52.7194V52.2429H54.6492C55.4597 52.2429 56.1416 51.9213 56.6949 51.278C57.2481 50.6347 57.5247 49.6633 57.5247 48.3639C57.5247 47.2832 57.2867 46.3955 56.8106 45.7007C56.3475 44.9931 55.672 44.6393 54.7843 44.6393Z" fill="#C03131"/>
<path d="M42.9863 55.0026V41.8796H46.4987V55.0026H42.9863Z" fill="#3565AC"/>
<path d="M34.7288 46.0867L33.4744 49.6569H36.0411L34.7288 46.0867ZM36.5428 41.8796L41.4446 54.6552L37.9902 55.0026L37.0446 52.4166H32.5094L31.6024 55.0026H28.1094L33.0305 41.8796H36.5428Z" fill="#3565AC"/>
<path d="M16.4141 55.0026V41.8796H21.9334C23.3873 41.8796 24.6481 42.272 25.7159 43.0568C26.7967 43.8416 27.337 45.0253 27.337 46.6078C27.337 48.1774 26.7645 49.3353 25.6195 50.0815C24.4744 50.8148 23.1943 51.1815 21.779 51.1815H19.9264V55.0026H16.4141ZM21.8176 44.6393H19.9264V48.4218H21.8562C22.3966 48.4218 22.8405 48.2481 23.1878 47.9008C23.5352 47.5534 23.7089 47.1224 23.7089 46.6078C23.7089 46.0288 23.5416 45.5592 23.2071 45.199C22.8726 44.8259 22.4095 44.6393 21.8176 44.6393Z" fill="#3565AC"/>
</svg>
